<svg width="15" height="14" viewBox="0 0 15 14" fill="none" xmlns="http://www.w3.org/2000/svg">
<path d="M7.49998 0C3.35786 0 0 3.134 0 6.99999C0 10.866 3.35786 14 7.49998 14C11.6421 14 15 10.866 15 6.99999C14.9956 3.13573 11.6403 0.00413086 7.49998 0ZM7.49998 13C3.94958 13 1.07142 10.3137 1.07142 6.99999C1.07142 3.68628 3.94958 0.99999 7.49998 0.99999C11.0504 0.99999 13.9286 3.68628 13.9286 6.99999C13.9247 10.3122 11.0488 12.9964 7.49998 13Z" fill="#155724"/>
<path d="M11.6154 4.14646C11.4078 3.95932 11.0787 3.95932 10.8711 4.14646L5.89267 8.79295L4.12855 7.14644C3.92301 6.9478 3.58385 6.94232 3.37106 7.13416C3.15824 7.326 3.15237 7.64255 3.35791 7.84115C3.36221 7.84531 3.3666 7.84941 3.37106 7.85343L5.51393 9.85344C5.72311 10.0486 6.06224 10.0486 6.27142 9.85344L11.6286 4.85343C11.8341 4.65482 11.8282 4.3383 11.6154 4.14646Z" fill="#155724"/>
</svg>
