<svg width="18" height="16" viewBox="0 0 18 16" fill="none" xmlns="http://www.w3.org/2000/svg">
<g clip-path="url(#clip0_131:5)">
<path d="M17.7681 12.6999L10.3848 1.81576C10.0939 1.38698 9.56329 1.12061 8.99998 1.12061C8.43667 1.12061 7.90606 1.38698 7.61514 1.81579L0.231871 12.6999C-0.0687501 13.1431 -0.0776446 13.6983 0.208633 14.1489C0.49498 14.5996 1.03449 14.8795 1.61668 14.8795H16.3833C16.9655 14.8795 17.505 14.5996 17.7914 14.1489C18.0776 13.6983 18.0687 13.143 17.7681 12.6999ZM16.7709 13.6367C16.6921 13.7607 16.5436 13.8378 16.3833 13.8378H1.61668C1.4564 13.8378 1.30786 13.7608 1.22908 13.6367C1.15026 13.5127 1.15272 13.3598 1.23544 13.2378L8.61878 2.3537C8.69887 2.23567 8.84494 2.16232 9.00002 2.16232C9.15506 2.16232 9.30113 2.23567 9.38122 2.3537L16.7645 13.2378C16.8473 13.3598 16.8497 13.5127 16.7709 13.6367Z" fill="#721C24"/>
<path d="M9.0056 5.40625C8.55982 5.40625 8.21191 5.61887 8.21191 5.99581C8.21191 7.14588 8.36411 8.7985 8.36411 9.94859C8.36414 10.2482 8.65773 10.3738 9.00564 10.3738C9.26657 10.3738 9.63623 10.2482 9.63623 9.94859C9.63623 8.79853 9.78842 7.14591 9.78842 5.99581C9.78842 5.61891 9.42966 5.40625 9.0056 5.40625Z" fill="#721C24"/>
<path d="M9.01592 11.0408C8.53755 11.0408 8.17871 11.379 8.17871 11.785C8.17871 12.1812 8.53752 12.5291 9.01592 12.5291C9.4617 12.5291 9.84227 12.1812 9.84227 11.785C9.84227 11.379 9.46167 11.0408 9.01592 11.0408Z" fill="#721C24"/>
</g>
<defs>
<clipPath id="clip0_131:5">
<rect width="18" height="16" fill="white"/>
</clipPath>
</defs>
</svg>
