<svg width="15" height="14" viewBox="0 0 15 14" fill="none" xmlns="http://www.w3.org/2000/svg">
<path d="M7.5 0C3.3645 0 0 3.14024 0 7.00004C0 10.8598 3.3645 14 7.5 14C11.6355 14 15 10.8598 15 7.00004C15 3.14024 11.6355 0 7.5 0ZM7.5 12.7273C4.11636 12.7273 1.36364 10.1581 1.36364 7.00004C1.36364 3.84202 4.11636 1.27273 7.5 1.27273C10.8836 1.27273 13.6364 3.84202 13.6364 7.00004C13.6364 10.1581 10.8836 12.7273 7.5 12.7273Z" fill="#004085"/>
<path d="M7.49973 2.96973C6.99855 2.96973 6.59082 3.35053 6.59082 3.81859C6.59082 4.28624 6.99855 4.6667 7.49973 4.6667C8.00091 4.6667 8.40864 4.28624 8.40864 3.81859C8.40864 3.35053 8.00091 2.96973 7.49973 2.96973Z" fill="#004085"/>
<path d="M7.50018 5.93945C7.12363 5.93945 6.81836 6.22437 6.81836 6.57582V10.394C6.81836 10.7454 7.12363 11.0304 7.50018 11.0304C7.87672 11.0304 8.182 10.7454 8.182 10.394V6.57582C8.182 6.22437 7.87672 5.93945 7.50018 5.93945Z" fill="#004085"/>
</svg>
